<svg xmlns="http://www.w3.org/2000/svg" xmlns:xlink="http://www.w3.org/1999/xlink" width="20" height="20" viewBox="0 0 20 20">
  <defs>
    <clipPath id="clip-path">
      <rect id="Rectangle_31" data-name="Rectangle 31" width="20" height="20" transform="translate(1103 32)" fill="#a1a1a1" stroke="#222" stroke-width="1"/>
    </clipPath>
  </defs>
  <g id="suporte" transform="translate(-1103 -32)" clip-path="url(#clip-path)">
    <g id="headset" transform="translate(1103 32)">
      <path id="Path_36" data-name="Path 36" d="M0,0H20V20H0Z" fill="none"/>
      <path id="Path_37" data-name="Path 37" d="M17.5,15.625v.625a2.5,2.5,0,0,1-2.5,2.5H10.625" fill="none" stroke="#222" stroke-linecap="round" stroke-linejoin="round" stroke-width="1.5"/>
      <path id="Path_38" data-name="Path 38" d="M17.5,10H15a1.25,1.25,0,0,0-1.25,1.25v3.125A1.25,1.25,0,0,0,15,15.625h2.5V10a7.5,7.5,0,1,0-15,0v4.375a1.25,1.25,0,0,0,1.25,1.25H5a1.25,1.25,0,0,0,1.25-1.25V11.25A1.25,1.25,0,0,0,5,10H2.5" fill="none" stroke="#222" stroke-linecap="round" stroke-linejoin="round" stroke-width="1.5"/>
    </g>
  </g>
</svg>
